<svg width="846" height="739" viewBox="0 0 846 739" fill="none" xmlns="http://www.w3.org/2000/svg">
<g clip-path="url(#clip0_2003_1112)">
<path d="M576.817 560.111C576.817 567.898 515.28 574.207 439.371 574.207C363.461 574.207 301.923 567.898 301.923 560.111C301.923 552.323 363.461 546.015 439.371 546.015C515.28 546.015 576.817 552.323 576.817 560.111Z" fill="#000302"/>
<path d="M511.214 276.548L497.876 301.999L537.447 359.089C548.952 344.516 557.91 325.572 565.065 303.608L511.214 276.548Z" fill="#FF8E6A"/>
<path d="M561.238 120.312C578.355 107.586 600.381 107.355 619.56 129.08C628.116 138.77 637.676 176.354 685.778 185.977C717.561 192.335 745.798 224.893 735.333 255.533C724.862 286.177 680.626 294 654.427 262.824C654.427 262.824 661.093 291.491 682.575 296.564C682.575 296.564 665.445 304.988 640.894 290.897C617.384 277.4 588.011 237.212 576.011 202.073C561.7 202.82 556.474 200.509 547.75 187.477C534.43 167.58 540.547 135.692 561.238 120.312Z" fill="#172749"/>
<path d="M554.755 128.25C563.829 134.602 585.31 134.201 595.593 132.084" stroke="#000302" stroke-width="0.666667" stroke-miterlimit="10" stroke-linecap="round" stroke-linejoin="round"/>
<path d="M563.225 122.504C571.693 129.158 587.723 129.158 597.4 125.83" stroke="#000302" stroke-width="0.666667" stroke-miterlimit="10" stroke-linecap="round" stroke-linejoin="round"/>
<path d="M600.728 134.602C597.097 147.003 597.67 165.886 605.176 175.449" stroke="#000302" stroke-width="0.666667" stroke-miterlimit="10" stroke-linecap="round" stroke-linejoin="round"/>
<path d="M612.522 127.948C629.156 138.836 624.921 161.218 630.972 177.549C636.415 192.068 649.721 199.931 664.24 203.257C679.062 206.887 695.696 211.727 704.768 225.035C714.145 238.341 711.724 256.79 699.325 267.68" stroke="#000302" stroke-width="0.666667" stroke-miterlimit="10" stroke-linecap="round" stroke-linejoin="round"/>
<path d="M633.391 160.008C639.745 186.623 677.245 190.555 697.511 200.233C716.868 209.308 735.015 238.948 718.076 258.606" stroke="#000302" stroke-width="0.666667" stroke-miterlimit="10" stroke-linecap="round" stroke-linejoin="round"/>
<path d="M617.967 147.909C617.967 162.124 617.06 177.55 622.804 190.857C627.948 202.048 637.626 212.633 647.91 219.288C662.125 228.059 689.95 243.484 679.363 264.958" stroke="#000302" stroke-width="0.666667" stroke-miterlimit="10" stroke-linecap="round" stroke-linejoin="round"/>
<path d="M600.425 194.185C594.679 207.492 594.981 221.707 601.029 235.014" stroke="#000302" stroke-width="0.666667" stroke-miterlimit="10" stroke-linecap="round" stroke-linejoin="round"/>
<path d="M614.943 180.574C614.943 198.115 616.153 216.262 621.295 233.199C627.037 252.254 637.02 265.26 652.141 277.962" stroke="#000302" stroke-width="0.666667" stroke-miterlimit="10" stroke-linecap="round" stroke-linejoin="round"/>
<path d="M568.272 118.477C579.162 113.638 599.21 115.608 606.171 126.597C614.139 139.179 613.332 162.117 609.237 178.33C598.386 221.301 615.244 274.637 658.192 292.783" stroke="#000302" stroke-width="0.666667" stroke-miterlimit="10" stroke-linecap="round" stroke-linejoin="round"/>
<path d="M597.107 186.122L584.441 227.657L539.442 225.485L563.687 187.801L597.107 186.122Z" fill="#FF8E6A"/>
<path d="M562.04 334.593C562.04 334.593 511.975 317.878 501.003 277.451L544.56 218.566L586.305 223.052C586.305 223.052 596.978 278.581 562.04 334.593Z" fill="#6343B2"/>
<path d="M504.209 169.866C504.209 169.866 481.953 147.869 477.704 149.947C473.455 152.026 471.168 170.558 472.872 173.217C474.579 175.883 504.209 169.866 504.209 169.866Z" fill="#F2B83D"/>
<path d="M488.778 172.199C488.778 172.199 497.71 144.778 502.067 144.689C506.424 144.599 516.121 158.803 515.845 161.705C515.578 164.603 488.778 172.199 488.778 172.199Z" fill="#FFF484"/>
<path d="M488.778 172.199C488.778 172.199 490.712 166.243 493.233 159.878" stroke="#000302" stroke-width="0.666667" stroke-miterlimit="10" stroke-linecap="round" stroke-linejoin="round"/>
<path d="M551.387 236.535L515.055 248.814L488.761 171.006L525.1 158.732L551.387 236.535Z" fill="#0CC9CD"/>
<path d="M515.055 248.814L486.163 254.859L461.001 180.388L488.762 171.007L515.055 248.814Z" fill="#009AAF"/>
<path d="M537.902 241.092L526.696 244.881L500.407 167.074L511.61 163.289L537.902 241.092Z" fill="#F2B83D"/>
<path d="M469.404 177.548L494.91 253.028L505.146 250.89L479.245 174.225L469.404 177.548Z" fill="#F2B83D"/>
<path d="M133.019 272.68L195.168 242.349V302.85L139.061 307.513L133.019 272.68Z" fill="#FF8E6A"/>
<path d="M135.981 259.635L146.843 251.346C150.762 252.916 150.904 271.494 141.512 276.35C141.512 276.35 140.145 297.615 152.149 308.583C140.816 315.799 131.282 321.614 131.282 321.614L109.601 231.541C109.601 231.541 125.522 227.709 135.981 259.635Z" fill="#F2B83D"/>
<path d="M124.619 242.35L137.62 274.129" stroke="#000302" stroke-width="0.666667" stroke-miterlimit="10" stroke-linecap="round" stroke-linejoin="round"/>
<path d="M107.914 231.948L129.595 322.022C129.818 322.952 130.756 323.527 131.688 323.302C132.62 323.077 133.194 322.14 132.971 321.208L111.289 231.136C111.064 230.204 110.127 229.632 109.195 229.855C108.262 230.078 107.689 231.016 107.914 231.948Z" fill="white"/>
<path d="M130.286 242.933C126.39 247.984 121.085 251.965 115.184 254.74L109.258 230.12C109.258 230.12 119.962 227.561 130.286 242.933Z" fill="white"/>
<path d="M131.968 248.475C130.915 250.487 129.428 252.235 127.366 253.25C126.597 253.629 125.951 252.465 126.721 252.086C128.594 251.163 129.882 249.605 130.834 247.779C131.232 247.02 132.364 247.72 131.968 248.475Z" fill="white"/>
<path d="M135.344 253.956C134.292 255.968 132.806 257.719 130.74 258.731C129.972 259.108 129.329 257.942 130.099 257.568C131.971 256.644 133.258 255.088 134.209 253.262C134.608 252.499 135.74 253.199 135.344 253.956Z" fill="white"/>
<path d="M139.686 251.707C140.654 251.426 142.38 251.453 142.165 252.937C142.043 253.79 141.679 254.605 141.212 255.328C140.051 257.126 138.437 258.521 136.327 259.008C135.353 256.544 137.16 252.445 139.686 251.707ZM136.373 260.409C138.931 260.639 141.583 263.656 141.498 266.172C141.468 267.091 140.818 269.451 139.216 268.255C138.579 267.781 138.035 267.18 137.62 266.503C136.478 264.637 135.887 262.578 136.373 260.409ZM135.381 259.715C135.375 259.742 135.368 259.766 135.365 259.788C135.332 259.842 135.3 259.895 135.283 259.964C134.6 262.822 135.454 266.075 137.486 268.239C138.808 269.645 140.992 270.52 142.119 268.304C143.679 265.224 141.263 260.937 138.067 259.634C140.141 258.71 141.838 256.954 142.762 254.876C143.623 252.942 143.488 250.347 140.747 250.389C136.72 250.448 133.656 256.167 135.381 259.715Z" fill="white"/>
<path d="M127.791 299.696L111.289 231.134" stroke="#000302" stroke-width="0.666667" stroke-miterlimit="10" stroke-linecap="round" stroke-linejoin="round"/>
<path d="M322.81 46.2392L378.037 87.864L324.118 115.313L294.511 67.4263L322.81 46.2392Z" fill="#FF8E6A"/>
<path d="M328.665 37.0771L341.839 40.7014C342.963 44.774 328.263 56.1324 318.713 51.5961C318.713 51.5961 300.959 63.3826 299.495 79.5767C286.891 74.9271 276.492 70.8595 276.492 70.8595L335.054 -0.926842C335.054 -0.926842 347.744 9.4231 328.665 37.0771Z" fill="#F2B83D"/>
<path d="M335.543 17.5678L318.122 47.1558" stroke="#000302" stroke-width="0.666667" stroke-miterlimit="10" stroke-linecap="round" stroke-linejoin="round"/>
<path d="M333.709 -2.0257L275.144 69.7623C274.54 70.5068 274.65 71.5998 275.393 72.2056C276.135 72.8096 277.227 72.6996 277.837 71.9585L336.399 0.168823C337.007 -0.573967 336.895 -1.667 336.152 -2.27274C335.409 -2.87846 334.315 -2.76511 333.709 -2.0257Z" fill="white"/>
<path d="M338.511 22.4331C332.13 22.3908 325.753 20.577 319.971 17.5585L335.978 -2.06362C335.978 -2.06362 344.495 4.90741 338.511 22.4331Z" fill="white"/>
<path d="M335.118 27.1248C332.88 27.5072 330.585 27.3803 328.53 26.3533C327.765 25.9709 328.301 24.7527 329.066 25.1368C330.936 26.069 332.954 26.1486 334.985 25.8017C335.832 25.6596 335.961 26.9827 335.118 27.1248Z" fill="white"/>
<path d="M332.8 33.1328C330.564 33.5135 328.267 33.3866 326.213 32.3579C325.447 31.9772 325.982 30.7589 326.75 31.143C328.618 32.0753 330.636 32.1548 332.667 31.808C333.514 31.6625 333.641 32.989 332.8 33.1328Z" fill="white"/>
<path d="M337.218 35.224C338.028 35.823 339.05 37.2155 337.74 37.9431C336.988 38.3627 336.118 38.5674 335.262 38.6317C333.128 38.7941 331.038 38.3593 329.372 36.9735C330.742 34.7063 335.103 33.6606 337.218 35.224ZM328.286 37.8585C329.649 40.0327 328.856 43.9716 326.803 45.4251C326.052 45.958 323.781 46.87 323.765 44.8701C323.754 44.0749 323.902 43.2779 324.189 42.5385C324.984 40.5014 326.267 38.7823 328.286 37.8585ZM328.237 36.6487C328.213 36.6571 328.191 36.669 328.167 36.6825C328.106 36.6876 328.047 36.6944 327.981 36.7197C325.292 37.9058 323.22 40.5589 322.729 43.481C322.409 45.3861 323.037 47.6551 325.482 47.2084C328.878 46.5892 330.827 42.0681 329.932 38.7366C331.922 39.8262 334.346 40.1122 336.558 39.5944C338.619 39.1088 340.603 37.4287 338.91 35.2714C336.422 32.104 330.016 33.1276 328.237 36.6487Z" fill="white"/>
<path d="M291.823 54.8108L336.399 0.16946" stroke="#000302" stroke-width="0.666667" stroke-miterlimit="10" stroke-linecap="round" stroke-linejoin="round"/>
<path d="M418.788 359.089L318.474 287.276L172.497 316.475L158.694 252.548C158.694 252.548 264.977 193.651 340.719 206.957C416.458 220.266 489.074 311.224 505.818 332.171L471.242 373.053L418.788 359.089Z" fill="#F6428C"/>
<path d="M349.41 309.421L318.475 287.275L224.12 306.149" stroke="#000302" stroke-width="0.666667" stroke-miterlimit="10" stroke-linecap="round" stroke-linejoin="round"/>
<path d="M318.475 287.275L313.401 269.217" stroke="#000302" stroke-width="0.666667" stroke-miterlimit="10" stroke-linecap="round" stroke-linejoin="round"/>
<path d="M318.475 287.275L320.981 269.217" stroke="#000302" stroke-width="0.666667" stroke-miterlimit="10" stroke-linecap="round" stroke-linejoin="round"/>
<path d="M172.227 252.931L183.122 309.422" stroke="#000302" stroke-width="0.666667" stroke-miterlimit="10" stroke-linecap="round" stroke-linejoin="round"/>
<path d="M473.585 240.207C473.585 240.207 457.53 216.415 458.724 211.37C459.914 206.323 465.117 198.893 468.766 197.842C472.416 196.79 487.735 197.77 489.268 200C490.799 202.223 487.316 204.47 487.316 204.47C487.316 204.47 492.305 206.561 492.447 208.309C492.596 210.062 489.427 211.289 489.427 211.289C489.427 211.289 493.361 212.363 493.505 214.109C493.652 215.864 489.815 217.921 489.815 217.921C489.815 217.921 493.265 219.063 493.686 220.331C494.111 221.595 491.346 225.033 488.204 224.684C485.055 224.337 481.388 224.146 481.388 224.146C481.388 224.146 483.009 240.96 473.585 240.207Z" fill="#FF8E6A"/>
<path d="M469.912 202.855C469.912 202.855 474.884 201.13 478.367 201.432C481.85 201.731 487.316 204.47 487.316 204.47" stroke="#000302" stroke-width="0.666667" stroke-miterlimit="10" stroke-linecap="round" stroke-linejoin="round"/>
<path d="M470.817 209.318C470.687 209.433 476.782 208.042 479.595 208.485C482.414 208.927 489.428 211.289 489.428 211.289" stroke="#000302" stroke-width="0.666667" stroke-miterlimit="10" stroke-linecap="round" stroke-linejoin="round"/>
<path d="M473.172 216.312C473.172 216.312 477.558 215.013 480.488 215.586C483.422 216.16 489.814 217.921 489.814 217.921" stroke="#000302" stroke-width="0.666667" stroke-miterlimit="10" stroke-linecap="round" stroke-linejoin="round"/>
<path d="M481.389 224.146C479.699 224.004 477.413 224.523 476.21 225.769" stroke="#000302" stroke-width="0.666667" stroke-miterlimit="10" stroke-linecap="round" stroke-linejoin="round"/>
<path d="M495.588 305.398C492.858 287.263 488.598 268.844 481.683 250.962C458.279 190.457 374.892 69.7368 374.892 69.7368L298.136 89.501C298.136 89.501 359.588 187.17 384.811 251.119C392.149 269.721 395.43 291.299 398.597 312.266C403.179 342.602 414.592 386.712 466.419 390.546C497.447 392.842 522.279 381.763 539.442 360.019L497.877 300.556L495.588 305.398Z" fill="#F6428C"/>
<path d="M497.876 300.555L491.271 314.468" stroke="#000302" stroke-width="0.666667" stroke-miterlimit="10" stroke-linecap="round" stroke-linejoin="round"/>
<path d="M310.344 96.7761L373.092 83.5126" stroke="#000302" stroke-width="0.666667" stroke-miterlimit="10" stroke-linecap="round" stroke-linejoin="round"/>
<path d="M349.405 92.9855C349.405 92.9855 350.786 94.9888 353.189 98.5911" stroke="#000302" stroke-width="0.666667" stroke-linecap="round" stroke-linejoin="round"/>
<path d="M360.294 109.419C378.495 137.577 414.325 196.142 426.746 238.896C442.174 291.985 432.414 349.161 472.51 355.082" stroke="#000302" stroke-width="0.666667" stroke-linecap="round" stroke-linejoin="round" stroke-dasharray="10.21 10.21"/>
<path d="M478.978 355.581C481.11 355.61 483.362 355.517 485.741 355.3" stroke="#000302" stroke-width="0.666667" stroke-linecap="round" stroke-linejoin="round"/>
<path d="M365.9 209.329C373.143 223.913 379.717 238.203 384.81 251.118C392.148 269.72 395.429 291.298 398.598 312.265C400.672 326.003 404.148 342.567 412.146 356.938" stroke="#000302" stroke-width="0.666667" stroke-miterlimit="10" stroke-linecap="round" stroke-linejoin="round"/>
<path d="M494.575 308.323L531.47 362.544" stroke="#000302" stroke-width="0.666667" stroke-miterlimit="10" stroke-linecap="round" stroke-linejoin="round"/>
<path d="M539.442 360.02L497.877 300.554" stroke="#000302" stroke-width="0.666667" stroke-miterlimit="10" stroke-linecap="round" stroke-linejoin="round"/>
<path d="M598.355 181.801C598.908 181.148 599.431 180.481 599.94 179.806C589.179 161.638 595.226 137.073 595.226 137.073C576.569 144.506 558.459 135.5 553.184 132.987C550.412 135.483 547.783 138.346 545.382 141.566C531.25 160.484 531.814 181.822 546.764 193.491C563.099 206.23 582.699 200.356 598.355 181.801Z" fill="#FF8E6A"/>
<path d="M549.766 142.732C551.93 139.728 554.275 137.035 556.735 134.63C555.258 133.981 554.038 133.394 553.184 132.987C550.412 135.483 547.783 138.346 545.382 141.566C531.25 160.484 531.814 181.822 546.764 193.492C547.614 194.15 548.465 194.747 549.326 195.305C536.049 182.962 536.095 161.724 549.766 142.732Z" fill="#FF9C7C"/>
<path d="M555.53 198.473C564.514 201.835 574.042 200.429 583.101 195.09" stroke="#000302" stroke-width="0.666667" stroke-miterlimit="10" stroke-linecap="round" stroke-linejoin="round"/>
<path d="M551.422 132.084C551.422 132.084 572.538 146.109 595.228 137.074C595.228 137.074 588.962 162.911 600.703 181.052" stroke="#000302" stroke-width="0.666667" stroke-miterlimit="10" stroke-linecap="round" stroke-linejoin="round"/>
<mask id="mask0_2003_1112" style="mask-type:luminance" maskUnits="userSpaceOnUse" x="579" y="173" width="8" height="7">
<path d="M579.461 173.012H586.197V179.745H579.461V173.012Z" fill="white"/>
</mask>
<g mask="url(#mask0_2003_1112)">
<path d="M584.791 179.113C583.28 180.199 581.173 179.851 580.094 178.338C579.006 176.827 579.358 174.727 580.871 173.643C582.381 172.557 584.485 172.907 585.564 174.419C586.652 175.93 586.302 178.037 584.791 179.113Z" fill="#FF6CB6"/>
</g>
<mask id="mask1_2003_1112" style="mask-type:luminance" maskUnits="userSpaceOnUse" x="541" y="147" width="6" height="7">
<path d="M541.252 147.817H546.57V153.135H541.252V147.817Z" fill="white"/>
</mask>
<g mask="url(#mask1_2003_1112)">
<path d="M545.464 152.635C544.264 153.493 542.604 153.217 541.751 152.023C540.897 150.832 541.173 149.17 542.365 148.312C543.557 147.459 545.217 147.734 546.073 148.928C546.927 150.121 546.651 151.782 545.464 152.635Z" fill="#FF6CB6"/>
</g>
<path d="M559.353 155.136C554.927 159.18 549.641 164.317 549.788 165.677C550.037 168.005 553.106 169.8 553.106 169.8" stroke="#000302" stroke-miterlimit="10" stroke-linecap="round" stroke-linejoin="round"/>
<path d="M546.504 173.031C546.504 173.031 554.797 186.281 566.969 176.036" stroke="#000302" stroke-miterlimit="10" stroke-linecap="round" stroke-linejoin="round"/>
<path d="M566.331 162.252C566.331 162.252 578.002 157.662 581.667 170.382" stroke="#000302" stroke-miterlimit="10" stroke-linecap="round" stroke-linejoin="round"/>
<path d="M579.865 166.24L581.963 165.734" stroke="#000302" stroke-miterlimit="10" stroke-linecap="round" stroke-linejoin="round"/>
<path d="M581.073 168.64L583.716 168.886" stroke="#000302" stroke-miterlimit="10" stroke-linecap="round" stroke-linejoin="round"/>
<path d="M546.722 148.178C546.722 148.178 553.778 144.579 554.924 153.677" stroke="#000302" stroke-miterlimit="10" stroke-linecap="round" stroke-linejoin="round"/>
<path d="M547.58 147.838L546.159 146.043" stroke="#000302" stroke-miterlimit="10" stroke-linecap="round" stroke-linejoin="round"/>
<path d="M548.97 147.527L548.78 146.065" stroke="#000302" stroke-miterlimit="10" stroke-linecap="round" stroke-linejoin="round"/>
<path d="M595.805 198.761C591.338 198.661 587.792 194.957 587.895 190.487C587.995 186.019 591.699 182.477 596.171 182.58C600.638 182.682 604.181 186.382 604.079 190.854C603.978 195.321 600.274 198.863 595.805 198.761Z" fill="#FF8E6A"/>
<path d="M595.495 195.922C593.133 195.871 591.265 193.909 591.315 191.547C591.37 189.186 593.326 187.313 595.688 187.371C598.048 187.422 599.921 189.379 599.869 191.74C599.814 194.105 597.857 195.971 595.495 195.922Z" fill="#D46643"/>
<path d="M599.776 190.757C599.109 187.151 594.769 186.786 592.641 188.549C590.58 190.258 590.683 193.894 593.159 193.992C594.573 194.046 595.685 192.662 595.191 191.19C594.698 189.728 593.78 189.139 592.011 189.2" stroke="#000302" stroke-width="0.666667" stroke-miterlimit="10" stroke-linecap="round" stroke-linejoin="round"/>
<path d="M587.896 190.488C587.996 186.017 591.699 182.478 596.171 182.579" stroke="#000302" stroke-width="0.666667" stroke-miterlimit="10" stroke-linecap="round" stroke-linejoin="round"/>
<path d="M536.906 541.075C536.906 549.841 529.801 556.947 521.033 556.947C512.269 556.947 505.161 549.841 505.161 541.075C505.161 532.307 512.269 525.204 521.033 525.204C529.801 525.204 536.906 532.307 536.906 541.075Z" fill="#F2B83D"/>
<path d="M528.087 541.075C528.087 544.97 524.932 548.129 521.033 548.129C517.138 548.129 513.978 544.97 513.978 541.075C513.978 537.178 517.138 534.021 521.033 534.021C524.932 534.021 528.087 537.178 528.087 541.075Z" fill="white"/>
<path d="M376.87 541.075C376.87 549.841 369.765 556.947 360.999 556.947C352.234 556.947 345.128 549.841 345.128 541.075C345.128 532.307 352.234 525.204 360.999 525.204C369.765 525.204 376.87 532.307 376.87 541.075Z" fill="#F2B83D"/>
<path d="M368.053 541.075C368.053 544.97 364.896 548.129 360.999 548.129C357.102 548.129 353.945 544.97 353.945 541.075C353.945 537.178 357.102 534.021 360.999 534.021C364.896 534.021 368.053 537.178 368.053 541.075Z" fill="white"/>
<path d="M505.161 541.075C505.161 532.307 512.269 525.204 521.034 525.204" stroke="#000302" stroke-width="0.666667" stroke-miterlimit="10" stroke-linecap="round" stroke-linejoin="round"/>
<path d="M513.978 541.075C513.978 537.178 517.139 534.021 521.034 534.021" stroke="#000302" stroke-width="0.666667" stroke-miterlimit="10" stroke-linecap="round" stroke-linejoin="round"/>
<path d="M345.128 541.075C345.128 532.307 352.235 525.204 360.999 525.204" stroke="#000302" stroke-width="0.666667" stroke-miterlimit="10" stroke-linecap="round" stroke-linejoin="round"/>
<path d="M353.945 541.075C353.945 537.178 357.104 534.021 360.999 534.021" stroke="#000302" stroke-width="0.666667" stroke-miterlimit="10" stroke-linecap="round" stroke-linejoin="round"/>
<path d="M576.929 312.741H270.604C270.342 312.741 270.131 312.529 270.131 312.269C270.131 312.005 270.342 311.793 270.604 311.793H576.929C577.191 311.793 577.403 312.005 577.403 312.269C577.403 312.529 577.191 312.741 576.929 312.741Z" fill="white"/>
<path d="M569.695 335.068H278.551C278.289 335.068 278.077 334.853 278.077 334.594C278.077 334.33 278.289 334.117 278.551 334.117H569.695C569.954 334.117 570.167 334.33 570.167 334.594C570.167 334.853 569.954 335.068 569.695 335.068Z" fill="white"/>
<path d="M565.009 357.391H286.499C286.238 357.391 286.027 357.179 286.027 356.919C286.027 356.655 286.238 356.445 286.499 356.445H565.009C565.269 356.445 565.481 356.655 565.481 356.919C565.481 357.179 565.269 357.391 565.009 357.391Z" fill="white"/>
<path d="M559.046 379.717H294.447C294.185 379.717 293.974 379.504 293.974 379.243C293.974 378.979 294.185 378.77 294.447 378.77H559.046C559.308 378.77 559.518 378.979 559.518 379.243C559.518 379.504 559.308 379.717 559.046 379.717Z" fill="white"/>
<path d="M553.086 402.042H302.396C302.135 402.042 301.924 401.827 301.924 401.568C301.924 401.304 302.135 401.093 302.396 401.093H553.086C553.346 401.093 553.558 401.304 553.558 401.568C553.558 401.827 553.346 402.042 553.086 402.042Z" fill="white"/>
<path d="M547.124 424.367H310.344C310.082 424.367 309.87 424.154 309.87 423.891C309.87 423.629 310.082 423.417 310.344 423.417H547.124C547.385 423.417 547.598 423.629 547.598 423.891C547.598 424.154 547.385 424.367 547.124 424.367Z" fill="white"/>
<path d="M540.624 446.691H318.293C318.031 446.691 317.82 446.48 317.82 446.219C317.82 445.955 318.031 445.744 318.293 445.744H540.624C540.886 445.744 541.096 445.955 541.096 446.219C541.096 446.48 540.886 446.691 540.624 446.691Z" fill="white"/>
<path d="M549.323 416.133C549.061 416.133 548.851 415.92 548.851 415.659V293.746C548.851 293.482 549.061 293.27 549.323 293.27C549.584 293.27 549.797 293.482 549.797 293.746V415.659C549.797 415.92 549.584 416.133 549.323 416.133Z" fill="white"/>
<path d="M507.871 462.628C507.609 462.628 507.399 462.417 507.399 462.156V293.745C507.399 293.481 507.609 293.269 507.871 293.269C508.132 293.269 508.345 293.481 508.345 293.745V462.156C508.345 462.417 508.132 462.628 507.871 462.628Z" fill="white"/>
<path d="M466.419 462.628C466.157 462.628 465.947 462.417 465.947 462.156V293.745C465.947 293.481 466.157 293.269 466.419 293.269C466.679 293.269 466.893 293.481 466.893 293.745V462.156C466.893 462.417 466.679 462.628 466.419 462.628Z" fill="white"/>
<path d="M424.965 462.628C424.705 462.628 424.492 462.417 424.492 462.156V293.745C424.492 293.481 424.705 293.269 424.965 293.269C425.228 293.269 425.441 293.481 425.441 293.745V462.156C425.441 462.417 425.228 462.628 424.965 462.628Z" fill="white"/>
<path d="M383.515 462.628C383.253 462.628 383.041 462.417 383.041 462.156V293.745C383.041 293.481 383.253 293.269 383.515 293.269C383.777 293.269 383.989 293.481 383.989 293.745V462.156C383.989 462.417 383.777 462.628 383.515 462.628Z" fill="white"/>
<path d="M342.063 462.628C341.801 462.628 341.59 462.417 341.59 462.156V293.745C341.59 293.481 341.801 293.269 342.063 293.269C342.326 293.269 342.537 293.481 342.537 293.745V462.156C342.537 462.417 342.326 462.628 342.063 462.628Z" fill="white"/>
<path d="M300.611 397.027C300.349 397.027 300.137 396.814 300.137 396.553V293.746C300.137 293.482 300.349 293.27 300.611 293.27C300.873 293.27 301.085 293.482 301.085 293.746V396.553C301.085 396.814 300.873 397.027 300.611 397.027Z" fill="white"/>
<path d="M325.973 459.314H534.723L578.176 296.586H268.039L325.973 459.314ZM536.906 464.997H323.968C322.765 464.997 321.692 464.241 321.289 463.109L261.33 294.694C261.02 293.826 261.152 292.86 261.685 292.104C262.218 291.349 263.086 290.901 264.008 290.901H581.876C582.761 290.901 583.593 291.312 584.13 292.012C584.669 292.711 584.85 293.622 584.622 294.478L539.652 462.889C539.322 464.136 538.195 464.997 536.906 464.997Z" fill="white"/>
<path d="M582.327 297.032C582.202 297.026 582.078 297.009 581.95 296.976C580.938 296.723 580.319 295.696 580.574 294.68C580.825 293.672 586.907 269.869 601.474 260.091C602.343 259.507 603.519 259.739 604.107 260.61C604.69 261.477 604.457 262.658 603.587 263.238C590.215 272.211 584.308 295.366 584.251 295.597C584.029 296.489 583.209 297.073 582.327 297.032Z" fill="white"/>
<path d="M533.378 526.655H340.719C339.675 526.655 338.825 525.807 338.825 524.76C338.825 523.714 339.675 522.865 340.719 522.865H533.378C549.594 522.865 562.788 509.674 562.788 493.458C562.788 477.243 549.594 464.053 533.378 464.053H347.333C346.285 464.053 345.438 463.202 345.438 462.156C345.438 461.11 346.285 460.261 347.333 460.261H533.378C551.684 460.261 566.577 475.154 566.577 493.458C566.577 511.764 551.684 526.655 533.378 526.655Z" fill="white"/>
<path d="M619.331 258.482C619.331 263.842 614.988 268.19 609.624 268.19C604.264 268.19 599.916 263.842 599.916 258.482C599.916 253.118 604.264 248.773 609.624 248.773C614.988 248.773 619.331 253.118 619.331 258.482Z" fill="#F2B83D"/>
<path d="M613.578 258.482C613.578 260.664 611.81 262.438 609.624 262.438C607.439 262.438 605.668 260.664 605.668 258.482C605.668 256.297 607.439 254.526 609.624 254.526C611.81 254.526 613.578 256.297 613.578 258.482Z" fill="white"/>
<path d="M609.624 268.191C604.264 268.191 599.917 263.842 599.917 258.482" stroke="#000302" stroke-width="0.666667" stroke-miterlimit="10" stroke-linecap="round" stroke-linejoin="round"/>
<path d="M383.811 269.058C383.811 269.058 382.144 213.842 408.115 205.739C434.082 197.634 430.413 252.901 409.311 278.863" stroke="#000302" stroke-width="0.666667" stroke-miterlimit="10" stroke-linecap="round" stroke-linejoin="round"/>
<path d="M299.517 356.855L405.633 405.578L435.748 394.201L442.011 272.208L363.14 245.204L360.945 248.111L350.541 248.754L299.517 356.855Z" fill="#0CC9CD"/>
<path d="M405.632 405.578L435.748 394.201L442.01 272.208L425.271 273.034L426.874 278.115L405.632 405.578Z" fill="#009AAF"/>
<path d="M352.612 250.896L426.874 278.115L425.271 273.034L439.459 272.333L363.908 246.747L361.901 249.371L352.612 250.896Z" fill="#000302"/>
<path d="M373.35 264.917C372.049 264.917 370.929 265.801 370.626 267.068C370.266 268.569 371.196 270.088 372.699 270.45C374.185 270.806 375.723 269.858 376.076 268.376C376.252 267.648 376.132 266.897 375.741 266.256C375.35 265.614 374.734 265.168 374.007 264.994C373.79 264.943 373.57 264.917 373.35 264.917ZM373.352 272.08C373.012 272.08 372.67 272.041 372.335 271.959C370 271.398 368.557 269.041 369.117 266.704C369.669 264.405 372.054 262.929 374.369 263.484C375.499 263.755 376.457 264.452 377.066 265.445C377.672 266.437 377.86 267.608 377.587 268.74C377.117 270.704 375.374 272.08 373.352 272.08Z" fill="#000302"/>
<path d="M398.851 274.719C397.552 274.719 396.432 275.602 396.127 276.868C395.767 278.369 396.695 279.888 398.201 280.25C399.689 280.609 401.225 279.66 401.58 278.178C401.939 276.67 401.01 275.156 399.509 274.799C399.291 274.744 399.071 274.719 398.851 274.719ZM398.86 281.88C398.518 281.88 398.173 281.839 397.838 281.758C395.501 281.194 394.058 278.839 394.618 276.506C395.169 274.206 397.557 272.728 399.87 273.288C402.203 273.844 403.648 276.2 403.091 278.536C402.619 280.506 400.878 281.88 398.86 281.88Z" fill="#000302"/>
<path d="M426.992 281.586L406.607 402.063" stroke="#000302" stroke-width="0.666667" stroke-miterlimit="10" stroke-linecap="round" stroke-linejoin="round"/>
<path d="M406.606 402.063L420.236 379.172L433.428 392.027" stroke="#000302" stroke-width="0.666667" stroke-miterlimit="10" stroke-linecap="round" stroke-linejoin="round"/>
<path d="M421.144 373.772L431.637 279.991" stroke="#000302" stroke-width="0.666667" stroke-miterlimit="10" stroke-linecap="round" stroke-linejoin="round"/>
<path d="M373.353 267.721C373.353 267.721 371.683 212.508 397.653 204.402C423.626 196.299 419.956 251.561 398.851 277.523" stroke="#000302" stroke-width="0.666667" stroke-miterlimit="10" stroke-linecap="round" stroke-linejoin="round"/>
<path d="M517.59 241.862L481.462 258.483C481.462 258.483 441.188 213.394 439.782 211.841C439.782 211.841 420.753 197.363 415.759 196.085C410.496 194.74 398.742 205.168 398.272 209.088C397.861 212.525 400.031 213.912 400.031 213.912C400.031 213.912 399.739 216.538 402.187 218.076C402.187 218.076 401.688 222.084 404.041 224.127C404.041 224.127 403.637 227.67 408.087 231.348C412.537 235.032 415.554 233.199 417.283 232.179C417.283 232.179 423.423 240.267 432.531 232.857C432.531 232.857 462.284 299.118 472.019 307.584C477.478 312.33 539.442 277.56 539.442 277.56L517.59 241.862Z" fill="#FF8E6A"/>
<path d="M411.931 224.557C411.931 224.557 413.911 228.985 417.283 232.18" stroke="#000302" stroke-width="0.666667" stroke-miterlimit="10" stroke-linecap="round" stroke-linejoin="round"/>
<path d="M414.259 215.532C414.259 215.532 404.967 218.947 404.041 224.126" stroke="#000302" stroke-width="0.666667" stroke-miterlimit="10" stroke-linecap="round" stroke-linejoin="round"/>
<path d="M402.187 218.077C402.449 216.097 406.439 210.92 411.133 208.859" stroke="#000302" stroke-width="0.666667" stroke-miterlimit="10" stroke-linecap="round" stroke-linejoin="round"/>
<path d="M400.031 213.913C400.672 211.272 404.542 206.565 410.489 203.363" stroke="#000302" stroke-width="0.666667" stroke-miterlimit="10" stroke-linecap="round" stroke-linejoin="round"/>
<path d="M472.02 307.584C477.478 312.332 539.443 277.56 539.443 277.56" stroke="#000302" stroke-width="0.666667" stroke-miterlimit="10" stroke-linecap="round" stroke-linejoin="round"/>
<path d="M586.899 235.355C585.996 225.356 578.233 201.125 544.56 218.566C510.884 236.003 501.629 241.807 501.629 241.807C501.629 241.807 509.309 276.916 526.586 293.44L567.658 264.635C567.658 264.635 588.229 250.077 586.899 235.355Z" fill="#6343B2"/>
<path d="M586.899 235.355C585.996 225.356 578.233 201.125 544.56 218.566C510.884 236.003 501.629 241.807 501.629 241.807C501.629 241.807 509.309 276.916 526.586 293.44L567.658 264.635" stroke="#000302" stroke-width="0.666667" stroke-miterlimit="10" stroke-linecap="round" stroke-linejoin="round"/>
<path d="M415.818 230.622C414.969 246.245 408.877 265.191 398.851 277.524" stroke="#000302" stroke-width="0.666667" stroke-miterlimit="10" stroke-linecap="round" stroke-linejoin="round"/>
<path d="M645.597 123.385C645.597 124.05 646.137 124.593 646.805 124.593C647.468 124.593 648.01 124.05 648.01 123.385C648.01 113.317 656.201 105.125 666.272 105.125C666.935 105.125 667.475 104.586 667.475 103.92C667.475 103.251 666.935 102.713 666.272 102.713C656.201 102.713 648.01 94.5208 648.01 84.4568C648.01 83.7902 647.468 83.2504 646.805 83.2504C646.137 83.2504 645.597 83.7902 645.597 84.4568C645.597 94.5208 637.406 102.713 627.34 102.713C626.672 102.713 626.136 103.251 626.136 103.92C626.136 104.586 626.672 105.125 627.34 105.125C637.406 105.125 645.597 113.317 645.597 123.385Z" fill="white"/>
<path d="M238.037 172.492C228.026 173.567 219.007 166.293 217.933 156.286C217.862 155.623 217.27 155.146 216.607 155.217C215.945 155.286 215.469 155.88 215.541 156.543C216.613 166.55 209.341 175.572 199.33 176.646C198.668 176.717 198.189 177.309 198.26 177.971C198.331 178.631 198.927 179.113 199.587 179.042C209.598 177.967 218.618 185.235 219.693 195.244C219.764 195.909 220.356 196.388 221.016 196.317C221.679 196.246 222.156 195.652 222.085 194.987C221.011 184.977 228.283 175.962 238.295 174.89C238.958 174.819 239.435 174.22 239.364 173.561C239.293 172.898 238.701 172.421 238.037 172.492Z" fill="white"/>
<path d="M257.191 135.43C250.042 136.198 243.602 131.007 242.836 123.86C242.765 123.199 242.169 122.72 241.508 122.791C240.849 122.862 240.371 123.456 240.442 124.117C241.208 131.264 236.014 137.704 228.867 138.471C228.205 138.542 227.726 139.134 227.797 139.799C227.868 140.46 228.462 140.939 229.124 140.868C236.271 140.102 242.712 145.289 243.479 152.44C243.55 153.1 244.145 153.58 244.804 153.509C245.465 153.438 245.946 152.842 245.875 152.181C245.106 145.034 250.299 138.596 257.446 137.829C258.109 137.757 258.59 137.164 258.517 136.501C258.446 135.836 257.854 135.361 257.191 135.43Z" fill="white"/>
<path d="M679.15 62.0389C672.001 62.8071 665.561 57.6143 664.795 50.469C664.725 49.8074 664.13 49.3286 663.468 49.3997C662.808 49.469 662.329 50.0629 662.402 50.7245C663.169 57.8715 657.972 64.3112 650.825 65.0777C650.164 65.1488 649.685 65.741 649.758 66.4059C649.827 67.0692 650.421 67.5463 651.083 67.4753C658.231 66.7088 664.671 71.8982 665.438 79.0468C665.51 79.7084 666.106 80.1872 666.764 80.1162C667.424 80.0451 667.904 79.4512 667.835 78.7897C667.067 71.641 672.26 65.2046 679.407 64.4364C680.068 64.3654 680.551 63.7715 680.478 63.1099C680.405 62.445 679.814 61.9678 679.15 62.0389Z" fill="white"/>
</g>
<defs>
<clipPath id="clip0_2003_1112">
<rect width="846" height="846" fill="white"/>
</clipPath>
</defs>
</svg>
