<svg width="1728" height="1117" viewBox="0 0 1728 1117" fill="none" xmlns="http://www.w3.org/2000/svg">
<mask id="mask0_2003_1756" style="mask-type:luminance" maskUnits="userSpaceOnUse" x="-209" y="0" width="1998" height="1224">
<path d="M-209 0H1789V1224H-209V0Z" fill="white"/>
</mask>
<g mask="url(#mask0_2003_1756)">
<mask id="mask1_2003_1756" style="mask-type:luminance" maskUnits="userSpaceOnUse" x="-209" y="-1" width="1551" height="952">
<path d="M-209 -0.000183105H1341.88V950.784H-209V-0.000183105Z" fill="white"/>
</mask>
<g mask="url(#mask1_2003_1756)">
<g opacity="0.300003">
<path d="M677.92 575.638C929.656 502.201 1169.4 414.078 1271.3 245.176C1318.52 165.2 1324.55 81.283 1341.88 -0.000183105H932.602C592.502 140.079 139.903 195.822 -209 316.516V950.784C-164.424 910.896 -114.039 874.504 -65.2955 843.682C132.494 718.841 426.185 649.076 677.92 575.638Z" fill="#AD9CEF"/>
</g>
</g>
<mask id="mask2_2003_1756" style="mask-type:luminance" maskUnits="userSpaceOnUse" x="-209" y="0" width="1999" height="1224">
<path d="M-209 0H1789V1224H-209V0Z" fill="white"/>
</mask>
<g mask="url(#mask2_2003_1756)">
<g opacity="0.399994">
<path d="M1341.88 0C1324.55 81.2832 1318.52 165.2 1271.3 245.176C1169.41 414.078 929.657 502.201 677.921 575.639C426.185 649.076 132.495 718.841 -65.2948 843.682C-114.042 874.505 -164.424 910.897 -208.999 950.784V1224H826.337C779.979 1139.78 760.435 1052.01 791.803 950.165C845.745 773.917 1091.49 674.78 1337.23 597.668C1487.51 548.929 1657.3 502.157 1789.01 432.377V0H1341.88Z" fill="#8D67DE"/>
</g>
</g>
<mask id="mask3_2003_1756" style="mask-type:luminance" maskUnits="userSpaceOnUse" x="776" y="432" width="1014" height="792">
<path d="M776.513 432.379H1789V1224H776.513V432.379Z" fill="white"/>
</mask>
<g mask="url(#mask3_2003_1756)">
<g opacity="0.300003">
<path d="M791.803 950.164C760.435 1052.01 779.979 1139.78 826.341 1224H1789.01V432.379C1657.3 502.156 1487.51 548.93 1337.23 597.67C1091.49 674.779 845.745 773.916 791.803 950.164Z" fill="#AD9CEF"/>
</g>
</g>
</g>
</svg>
